<svg xmlns="http://www.w3.org/2000/svg" xmlns:xlink="http://www.w3.org/1999/xlink" width="2000" zoomAndPan="magnify" viewBox="0 0 1500 1499.999933" height="2000" preserveAspectRatio="xMidYMid meet" version="1.0"><defs><clipPath id="bb64601848"><path d="M 18 86.136719 L 1482 86.136719 L 1482 1413.636719 L 18 1413.636719 Z M 18 86.136719 " clip-rule="nonzero"/></clipPath></defs><g clip-path="url(#bb64601848)"><path fill="#a3dfff" d="M 206.457031 131.832031 C 347.175781 39.019531 489.015625 117.441406 650.167969 110.792969 C 811.875 104.113281 951.898438 57.140625 1063.402344 137.71875 C 1174.976562 218.300781 1470.992188 266.820312 1481.03125 425.648438 C 1491.074219 584.464844 1414.296875 845.476562 1427.546875 994.339844 C 1440.796875 1143.203125 1468.757812 1226.5625 1393.9375 1304.878906 C 1319.113281 1383.199219 1106.707031 1334.265625 962.917969 1350.980469 C 814.875 1368.1875 516.558594 1483.394531 371.585938 1350.050781 C 246.761719 1235.25 176.261719 1190.996094 78.148438 1089.507812 C -20.035156 988.015625 24.175781 851.101562 57.785156 708.578125 C 93.769531 555.945312 37.5625 243.199219 206.457031 131.832031 Z M 206.457031 131.832031 " fill-opacity="1" fill-rule="evenodd"/></g><path fill="#8fd7ff" d="M 133.445312 966.3125 C 180.65625 925.957031 358.683594 982.234375 478.625 980.074219 C 624.714844 977.4375 897.507812 888.109375 955.804688 960.105469 C 1014.101562 1032.101562 1052.871094 1115.65625 1122.46875 1155.1875 C 1192.058594 1194.710938 1315.976562 1241.503906 1240.105469 1266.105469 C 1203.007812 1278.148438 1035.859375 1320.035156 900.578125 1307.847656 C 779.242188 1296.910156 652.957031 1351.550781 627.222656 1357.464844 C 576.808594 1369.039062 519.070312 1357.148438 490.480469 1287.972656 C 453.449219 1198.367188 74.105469 1017.046875 133.445312 966.3125 Z M 133.445312 966.3125 " fill-opacity="1" fill-rule="evenodd"/><path fill="#76c9f4" d="M 579.25 569.433594 C 604.28125 550.457031 552.539062 915.015625 538.804688 994.410156 C 499.195312 1222.734375 527.226562 1216.96875 497.3125 1367.085938 C 446.335938 1323.230469 457.144531 1307.675781 432.25 1254.308594 C 406.242188 1198.625 310.566406 1166.203125 324.652344 1149.15625 C 355.476562 1111.867188 449.40625 1237.933594 475.695312 1164.878906 C 521.996094 1036.324219 555.050781 587.847656 579.25 569.433594 Z M 579.25 569.433594 " fill-opacity="1" fill-rule="evenodd"/><path fill="#76c9f4" d="M 265.03125 225.324219 C 252.269531 228.636719 256.523438 248.546875 292.578125 284.28125 C 336.648438 328.003906 457.5625 384.394531 538.175781 498.226562 C 604.28125 591.542969 614.601562 505.800781 851.207031 515.40625 C 1019.050781 522.21875 1099.875 487.789062 1267.929688 493.5 C 1347.144531 496.199219 1461.644531 463.386719 1411.160156 458.480469 C 1354.816406 452.984375 1183.0625 460.648438 1015.496094 473.113281 C 849.253906 485.488281 687.265625 502.871094 596.960938 449.410156 C 494.242188 388.632812 450.660156 342.058594 409.238281 309.839844 C 319.285156 239.859375 298.226562 216.707031 265.03125 225.324219 Z M 265.03125 225.324219 " fill-opacity="1" fill-rule="evenodd"/><path fill="#e3f5ff" d="M 345.644531 171.183594 C 375.558594 126.277344 518.859375 161.257812 654.699219 145.269531 C 844.023438 122.980469 975.75 156.410156 970.867188 202.816406 C 965.984375 249.230469 752.464844 244.070312 750.023438 312.050781 C 747.023438 395.660156 995.414062 362.980469 1065.773438 334.847656 C 1136.203125 306.714844 1325.320312 296.789062 1309.351562 382.902344 C 1293.3125 469.015625 1078.253906 418.914062 1005.664062 425.835938 C 901.554688 435.769531 594.171875 453.460938 537.828125 382.902344 C 492.082031 325.589844 484.273438 300.460938 439.015625 284.238281 C 393.757812 268.019531 312.03125 221.667969 345.644531 171.183594 Z M 345.644531 171.183594 " fill-opacity="1" fill-rule="evenodd"/><path fill="#ffffff" d="M 1423.574219 568.714844 C 1450.769531 571.890625 1382.710938 800.367188 1371.691406 895.222656 C 1359.835938 997.527344 1391.636719 1221.785156 1310.257812 1277.546875 C 1265 1308.554688 1148.824219 1318.71875 1034.601562 1310.925781 C 900.226562 1301.753906 751.347656 1327.183594 750.023438 1308.386719 C 746.046875 1252.066406 1206.914062 1289.085938 1281.179688 1192.808594 C 1331.105469 1128.003906 1344.078125 958.152344 1342.683594 888.578125 C 1340.871094 800.902344 1386.476562 564.394531 1423.574219 568.714844 Z M 1423.574219 568.714844 " fill-opacity="1" fill-rule="evenodd"/><path fill="#ffffff" d="M 101.71875 793.019531 C 131.007812 796.972656 145.300781 323.082031 199.691406 317.710938 C 254.085938 312.351562 418.304688 473.679688 429.183594 435.351562 C 440.0625 397.019531 305.546875 329.816406 258.476562 300.816406 C 211.339844 271.820312 200.390625 216.519531 163.011719 241.332031 C 136.515625 258.910156 125.777344 412.21875 112.945312 542.195312 C 100.394531 670.015625 84.285156 790.660156 101.71875 793.019531 Z M 101.71875 793.019531 " fill-opacity="1" fill-rule="evenodd"/></svg>