<svg xmlns="http://www.w3.org/2000/svg" xmlns:xlink="http://www.w3.org/1999/xlink" width="2000" zoomAndPan="magnify" viewBox="0 0 1500 1499.999933" height="2000" preserveAspectRatio="xMidYMid meet" version="1.0"><defs><clipPath id="543be1dc50"><path d="M 471 37 L 1004 37 L 1004 495 L 471 495 Z M 471 37 " clip-rule="nonzero"/></clipPath><clipPath id="18a647a365"><path d="M 785.152344 -51.570312 L 1516.167969 512.347656 L 714.5 1551.570312 L -16.519531 987.652344 Z M 785.152344 -51.570312 " clip-rule="nonzero"/></clipPath><clipPath id="0678697433"><path d="M 785.152344 -51.570312 L 1516.167969 512.347656 L 714.5 1551.570312 L -16.519531 987.652344 Z M 785.152344 -51.570312 " clip-rule="nonzero"/></clipPath><clipPath id="0bfca0796d"><path d="M 785.152344 -51.570312 L 1516.167969 512.347656 L 714.5 1551.570312 L -16.519531 987.652344 Z M 785.152344 -51.570312 " clip-rule="nonzero"/></clipPath><clipPath id="99b708ab0f"><path d="M 462 289 L 1032 289 L 1032 897 L 462 897 Z M 462 289 " clip-rule="nonzero"/></clipPath><clipPath id="667ec0b750"><path d="M 785.152344 -51.570312 L 1516.167969 512.347656 L 714.5 1551.570312 L -16.519531 987.652344 Z M 785.152344 -51.570312 " clip-rule="nonzero"/></clipPath><clipPath id="01e48c9687"><path d="M 785.152344 -51.570312 L 1516.167969 512.347656 L 714.5 1551.570312 L -16.519531 987.652344 Z M 785.152344 -51.570312 " clip-rule="nonzero"/></clipPath><clipPath id="8d34eb1c3e"><path d="M 785.152344 -51.570312 L 1516.167969 512.347656 L 714.5 1551.570312 L -16.519531 987.652344 Z M 785.152344 -51.570312 " clip-rule="nonzero"/></clipPath><clipPath id="608d2c356a"><path d="M 437 776 L 988 776 L 988 1472 L 437 1472 Z M 437 776 " clip-rule="nonzero"/></clipPath><clipPath id="d13f1dc330"><path d="M 785.152344 -51.570312 L 1516.167969 512.347656 L 714.5 1551.570312 L -16.519531 987.652344 Z M 785.152344 -51.570312 " clip-rule="nonzero"/></clipPath><clipPath id="5dfe2d6504"><path d="M 785.152344 -51.570312 L 1516.167969 512.347656 L 714.5 1551.570312 L -16.519531 987.652344 Z M 785.152344 -51.570312 " clip-rule="nonzero"/></clipPath><clipPath id="5e7586dd84"><path d="M 785.152344 -51.570312 L 1516.167969 512.347656 L 714.5 1551.570312 L -16.519531 987.652344 Z M 785.152344 -51.570312 " clip-rule="nonzero"/></clipPath></defs><g clip-path="url(#543be1dc50)"><g clip-path="url(#18a647a365)"><g clip-path="url(#0678697433)"><g clip-path="url(#0bfca0796d)"><path fill="#fdb702" d="M 921.535156 181.664062 C 917.675781 184.269531 913.742188 186.800781 909.761719 189.28125 C 882.738281 206.140625 853.597656 220.679688 827.441406 235.992188 C 781.011719 263.128906 733.867188 289.785156 687.261719 317.398438 C 674.796875 324.785156 662.394531 332.25 649.953125 339.660156 C 631.222656 350.828125 612.527344 361.992188 594.199219 373.710938 C 561.21875 394.796875 529.207031 417.242188 499.175781 442.511719 C 486.433594 453.207031 479.175781 460.859375 475.839844 465.691406 C 471.308594 472.257812 471.289062 477.6875 471.832031 481.050781 C 472.785156 486.941406 476.292969 491.273438 482.671875 493.738281 C 485.492188 494.832031 490.039062 495.371094 496.039062 494.4375 C 501.980469 493.511719 510.808594 490.777344 521.226562 486.863281 C 558.578125 472.835938 619.144531 442.394531 627.292969 439.324219 C 636.507812 435.605469 640.980469 425.101562 637.273438 415.882812 C 633.554688 406.667969 623.0625 402.195312 613.839844 405.914062 C 607.828125 408.5 572.980469 427.777344 540.433594 443.914062 C 571.675781 417.953125 604.800781 394.460938 639.496094 373.261719 C 659.066406 361.304688 679.164062 350.160156 699.523438 339.507812 C 747.425781 314.445312 796.746094 292.222656 844.914062 268.550781 C 872.628906 254.949219 903.601562 242.871094 932.007812 227.191406 C 952.644531 215.804688 971.75 202.375 988.089844 186.453125 C 990.988281 183.480469 995.277344 179.257812 997.980469 174.875 C 1000.742188 170.398438 1002.492188 165.710938 1002.941406 161.144531 C 1004.042969 149.9375 999.792969 137.402344 982.34375 133.355469 C 977.644531 132.265625 970.265625 131.757812 962.058594 132.367188 C 948.152344 133.40625 930.96875 136.765625 928.839844 137.109375 C 895.3125 142.617188 863.03125 149.925781 831.320312 158.320312 C 801.40625 166.238281 772.148438 175.398438 742.78125 184.570312 C 710.46875 194.660156 678.09375 204.90625 645.238281 215.34375 C 669.148438 199 693.53125 183.144531 718.125 167.539062 C 768.59375 135.511719 819.96875 104.664062 870.882812 74.390625 C 874.824219 72.046875 882.28125 63.820312 887.226562 60.800781 C 890.050781 62.921875 893.804688 63.714844 897.445312 62.628906 C 903.558594 60.804688 907.054688 54.355469 905.230469 48.234375 C 902.800781 39.375 895.851562 35.46875 884.878906 38.65625 C 877.613281 40.769531 865.808594 49.214844 858.765625 53.019531 C 806.394531 81.347656 753.347656 109.921875 701.53125 140.34375 C 666.757812 160.757812 632.613281 182.066406 599.386719 204.277344 C 597.398438 205.644531 584.875 213.925781 576.035156 221.886719 C 570.554688 226.828125 566.386719 231.972656 564.453125 235.957031 C 559.949219 245.238281 561.78125 253.089844 566.589844 258.890625 C 570.882812 264.085938 577.785156 267.707031 586.945312 267.839844 C 598.597656 268.007812 617.109375 260.828125 622.597656 259.039062 C 675.160156 242.070312 725.734375 224.078125 777.429688 209.941406 C 824.164062 197.160156 871.714844 187.644531 921.535156 181.664062 Z M 964.210938 174.308594 C 966.792969 177.546875 970.238281 181 971.1875 177.554688 C 971.921875 174.871094 968.851562 174.097656 964.210938 174.308594 Z M 957.769531 152.398438 C 959.109375 151.574219 960.273438 150.699219 959.355469 149.992188 C 958.324219 149.199219 957.949219 150.664062 957.769531 152.398438 Z M 888.058594 60.339844 L 888.421875 60.484375 C 889.316406 60.789062 892.351562 62.40625 891.882812 61.015625 C 891.324219 59.363281 889.917969 59.378906 888.058594 60.339844 Z M 888.058594 60.339844 " fill-opacity="1" fill-rule="evenodd"/></g></g></g></g><g clip-path="url(#99b708ab0f)"><g clip-path="url(#667ec0b750)"><g clip-path="url(#01e48c9687)"><g clip-path="url(#8d34eb1c3e)"><path fill="#fdb702" d="M 1010.648438 294.671875 C 1010.191406 295 1009.574219 295.429688 1009.058594 295.773438 C 995.945312 304.328125 959.980469 321.347656 956.859375 323 C 905.535156 350.105469 854.5625 378.1875 804.28125 407.488281 C 753.929688 436.828125 704.3125 467.386719 655.652344 499.210938 C 628.949219 516.792969 601.765625 534.550781 575.1875 553.160156 C 548.390625 571.925781 522.21875 591.558594 497.210938 611.953125 C 495.328125 613.492188 481.050781 625.582031 478.347656 631.871094 C 475.007812 639.660156 476.640625 646.230469 480.222656 651.136719 C 482.582031 654.363281 486.128906 657.140625 491.027344 658.367188 C 494.265625 659.179688 499.535156 658.84375 501.347656 658.675781 C 546.054688 654.664062 650.242188 615.160156 753.746094 580.667969 C 790.058594 568.5625 826.390625 557.488281 859.726562 548.359375 C 901.351562 536.949219 938.234375 529.054688 964.5625 528.125 C 971.738281 527.867188 977.945312 528.203125 983.003906 529.34375 C 983.246094 529.398438 983.507812 529.472656 983.769531 529.554688 C 982.667969 530.828125 981.265625 532.378906 980.210938 533.359375 C 964.082031 548.425781 945.492188 560.898438 925.984375 572.410156 C 902.792969 586.097656 878.101562 598.117188 853.46875 609.71875 C 827.308594 622.050781 801.347656 634.136719 777.152344 646.851562 C 729.148438 672.300781 681.65625 699.613281 635.984375 729.683594 C 590.175781 759.835938 546.21875 792.640625 505.53125 829.148438 C 501.324219 832.894531 478.496094 850.671875 468.917969 863.859375 C 462.214844 873.085938 461.414062 881.894531 464.15625 887.414062 C 467.542969 894.222656 476.421875 898.941406 489.457031 896.191406 C 506.753906 892.546875 535.488281 876.570312 539.921875 874.367188 C 554.925781 867.207031 760.914062 749.910156 886.449219 710.457031 C 911.679688 702.527344 933.359375 697.855469 948.941406 698.449219 C 951.902344 698.566406 954.558594 698.929688 956.882812 699.570312 C 958.289062 699.957031 959.585938 700.21875 960.144531 701.292969 C 961.667969 704.246094 960.125 708.273438 958.347656 713.839844 C 955.609375 722.429688 950.398438 732.820312 942.628906 745.347656 C 937.484375 753.851562 940.207031 764.9375 948.707031 770.078125 C 957.207031 775.226562 968.289062 772.5 973.4375 763.992188 C 985.191406 744.085938 991.675781 728.214844 993.960938 716.003906 C 996.4375 702.804688 994.675781 692.636719 990.453125 685.03125 C 982.292969 670.355469 962.644531 662.195312 933.101562 666.082031 C 824.308594 680.402344 547.183594 844.476562 529.625 853.3125 C 528.308594 853.945312 523.402344 854.820312 517.1875 856.101562 C 519.75 852.703125 521.726562 850.09375 522.742188 849.25 C 563.90625 815.585938 608.058594 785.632812 653.9375 758.421875 C 699.949219 731.132812 747.664062 706.738281 795.765625 684.125 C 837.410156 664.121094 884.628906 647.203125 927.683594 624.335938 C 958.351562 608.050781 986.765625 588.652344 1010.722656 565.148438 C 1017.925781 557.992188 1024.195312 549.722656 1026.917969 540.695312 C 1029.375 532.570312 1029.765625 523.839844 1026.203125 514.460938 C 1021.539062 502.226562 1011.691406 492.890625 995.285156 488.847656 C 975.574219 483.996094 942.246094 487.472656 901.410156 497.714844 C 854.34375 509.515625 796.269531 529.902344 737.796875 550.316406 C 671.242188 573.554688 604.382812 597.425781 554.964844 611.511719 C 563.226562 605.3125 571.578125 599.183594 579.96875 593.09375 C 611.140625 570.464844 642.976562 548.492188 674.359375 527.09375 C 721.804688 494.425781 770.269531 463.054688 819.414062 432.75 C 868.628906 402.394531 918.488281 373.117188 968.761719 344.855469 C 971.957031 343.058594 1008.703125 324.355469 1022.050781 315.125 C 1026.421875 312.105469 1029.0625 309.28125 1030.015625 307.675781 C 1032.070312 304.210938 1032.175781 301.105469 1031.660156 298.722656 C 1030.40625 292.464844 1024.304688 288.40625 1018.042969 289.664062 C 1014.882812 290.300781 1012.289062 292.171875 1010.648438 294.671875 Z M 1010.648438 294.671875 " fill-opacity="1" fill-rule="evenodd"/></g></g></g></g><g clip-path="url(#608d2c356a)"><g clip-path="url(#d13f1dc330)"><g clip-path="url(#5dfe2d6504)"><g clip-path="url(#5e7586dd84)"><path fill="#fdb702" d="M 922.46875 1009.433594 C 912.914062 1015.507812 904.535156 1020.179688 902.457031 1021.507812 C 879.742188 1036.210938 796.832031 1083.414062 710.414062 1138.804688 C 667.457031 1166.335938 623.992188 1196.34375 585.640625 1223.949219 C 530.707031 1263.488281 486.785156 1299.371094 470.859375 1320.710938 C 462.066406 1332.484375 460.042969 1342.699219 461.480469 1349.320312 C 462.199219 1352.660156 463.410156 1355.40625 465.164062 1357.671875 C 467.320312 1360.453125 470.03125 1362.828125 473.730469 1364.40625 C 483.316406 1368.496094 500.296875 1368.195312 522.335938 1361.222656 C 566.308594 1347.296875 637.171875 1309.410156 708.398438 1274.433594 C 751.265625 1253.382812 794.300781 1233.5 831.039062 1220.304688 C 854.484375 1211.882812 875.285156 1206.382812 891.570312 1205.21875 C 896.636719 1204.859375 901.171875 1204.871094 905.054688 1205.542969 C 903.617188 1208.054688 902.058594 1211.378906 899.652344 1213.773438 C 885.085938 1228.261719 862.703125 1243.566406 859.71875 1245.816406 C 823.996094 1272.769531 786.539062 1298.144531 751.019531 1325.761719 C 726.761719 1344.628906 703.417969 1364.527344 682.148438 1386.71875 C 678.171875 1390.878906 674.292969 1395.152344 670.605469 1399.574219 C 666.769531 1404.179688 663.167969 1408.96875 659.863281 1413.96875 C 649.015625 1430.371094 648 1442.480469 650.019531 1450.148438 C 652.871094 1461 661.929688 1468.601562 677.078125 1470.699219 C 692.550781 1472.839844 717.746094 1468.25 739.886719 1463.683594 C 753.488281 1460.878906 765.390625 1457.375 770.546875 1458.429688 C 780.300781 1460.339844 789.777344 1453.96875 791.683594 1444.214844 C 793.601562 1434.457031 787.234375 1424.984375 777.480469 1423.082031 C 772.996094 1422.207031 765.53125 1422.339844 756.3125 1423.953125 C 740.792969 1426.667969 717.941406 1433.230469 698.785156 1436.082031 C 694.136719 1436.773438 688.441406 1436.917969 684.351562 1436.90625 C 685.152344 1435.273438 686.144531 1433.511719 687.335938 1431.597656 C 689.867188 1427.527344 692.652344 1423.621094 695.621094 1419.859375 C 698.726562 1415.910156 702.007812 1412.097656 705.378906 1408.382812 C 725.011719 1386.734375 746.660156 1367.179688 769.285156 1348.691406 C 804 1320.332031 840.875 1294.390625 875.886719 1266.800781 C 879.917969 1263.628906 916.375 1237.054688 928.347656 1218.738281 C 937.742188 1204.355469 935.609375 1192.59375 924.199219 1186.3125 C 915.769531 1181.632812 904.085938 1179.679688 889.675781 1180.902344 C 871.742188 1182.425781 848.914062 1188.808594 823.074219 1198.136719 C 789.578125 1210.230469 750.882812 1227.566406 711.394531 1245.617188 C 652.953125 1272.335938 592.832031 1300.683594 547.148438 1318.132812 C 533.6875 1323.269531 521.554688 1327.367188 511.1875 1330.023438 C 532.144531 1311.050781 567.78125 1285.960938 609.390625 1258.269531 C 648.308594 1232.367188 692.730469 1204.886719 735.296875 1177.761719 C 822.128906 1122.425781 902.550781 1070.691406 924.96875 1055.390625 C 929.707031 1052.121094 964.320312 1031.109375 977.972656 1014.878906 C 990.410156 1000.105469 989.871094 985.695312 982.109375 976.519531 C 978.277344 971.984375 971.152344 967.210938 959.464844 966.820312 C 950.128906 966.503906 935.316406 968.757812 916.566406 973.417969 C 884.777344 981.308594 840.21875 996.074219 791.679688 1012.890625 C 680.078125 1051.550781 547.378906 1101.996094 508.285156 1112.503906 C 506.347656 1113.027344 500.714844 1114.90625 493.738281 1116.898438 L 495.140625 1115.664062 C 538.179688 1078.4375 584.199219 1044.570312 631.394531 1012.15625 C 702.816406 963.113281 776.929688 917.453125 848.105469 869.460938 C 867.289062 856.507812 893.023438 832.527344 917.828125 815.484375 C 928.257812 808.324219 938.414062 802.367188 947.796875 799.570312 C 953.9375 797.816406 957.503906 791.414062 955.753906 785.273438 C 954.007812 779.132812 947.605469 775.566406 941.464844 777.3125 C 929.984375 780.445312 917.332031 787.109375 904.460938 795.515625 C 879.355469 811.902344 853.171875 835.195312 833.761719 847.640625 C 761.410156 894.070312 686.070312 937.949219 613.546875 985.558594 C 564.621094 1017.679688 517.019531 1051.535156 472.308594 1088.75 C 467.210938 1093.078125 449.160156 1106.582031 442.417969 1117.90625 C 437.402344 1126.324219 436.746094 1134.605469 439.175781 1141.429688 C 442.265625 1150.109375 451.199219 1157.402344 465.992188 1157.550781 C 482.78125 1157.722656 512.203125 1147.878906 517.464844 1146.445312 C 560.570312 1134.671875 716.191406 1072.449219 834.210938 1034.320312 C 868.082031 1023.371094 898.808594 1014.628906 922.46875 1009.433594 Z M 922.46875 1009.433594 " fill-opacity="1" fill-rule="evenodd"/></g></g></g></g></svg>